<?xml version="1.0" encoding="UTF-8"?>
<svg id="Lager_1" data-name="Lager 1" xmlns="http://www.w3.org/2000/svg" viewBox="0 0 137.2 73.69">
  <defs>
    <style>
      .cls-1 {
        fill: #dc3925;
        stroke: #dc3925;
        stroke-miterlimit: 10;
        stroke-width: 1.42px;
      }

      .cls-2 {
        fill: #1d1d1b;
        font-family: AgencyFB-Bold, 'Agency FB';
        font-size: 51.02px;
        font-weight: 700;
        letter-spacing: -.01em;
      }
    </style>
  </defs>
  <text class="cls-2" transform="translate(0 45)"><tspan x="0" y="0">A</tspan><tspan x="22.51" y="0">bacus</tspan></text>
  <g>
    <path class="cls-1" d="m50.94,39.58c2.96.1,6.02.68,5.82,4.12,0,.48-.41,1.36-1.12,1.36-.92.03-1.5-1.67-2.18-2.41-.75-.27-2.08-.34-2.92-.34-5.85-.24-11.22,5.17-11.26,11.67-.03,5.99,4.52,9.22,9.9,9.08,4.25-.14,7.38-.65,11.22-2.52,1.19-.54.58,1.46-.88,2.24-3.78,1.97-8.13,3.13-12.45,3.27-7.35.14-12.69-3.88-11.84-12.21.82-7.52,9.56-14.49,15.71-14.25Z"/>
    <path class="cls-1" d="m64.52,63.93c-1.94.1-4.32-1.16-4.49-3.03-.37-4.29,3.91-8.23,8.57-9.42,1.12-.24,2.75.27,3.4,1.46.44.78.92,1.7.17,2.35-.2.27-.71.44-.78.24-.34-.51-1.26-1.7-2.24-1.56-3.13.17-5.17,1.97-5.34,4.29-.31,1.9.61,3.16,2.28,3.06,1.8-.1,2.92-.61,3.91-1.29.61-.41,1.12-1.53,2.01-1.53.95,0,1.16,1.73,2.28,2.21,1.46.65,3.4.07,4.79-.31.27-.03.34.37.24.51-1.97,2.11-4.76,3.03-6.12,3.03-1.43,0-2.35-.88-3.13-1.67-.75-.68-3.37,1.5-5.54,1.67Z"/>
    <path class="cls-1" d="m80.13,50.46c.85,0,1.29.54,1.26,1.22-.2,2.45-.31,4.9,0,7.38,0,.31.17.85.61.85.75,0,1.12-.99,3.3-3.95.75-1.05,2.38-2.89,3.95-2.89.85,0,1.26.37,1.22,1.22.03.61-.14,1.39-.14,2.18,0,.48.14.71.48.71,1.05,0,3.91-4.42,6.7-4.42.54,0,1.19.31,1.22.85.24,2.07.2,7.69,3.91,7.69,1.46,0,2.18-.65,3.64-.92.54-.1.31.61.1.92-1.02,1.7-4.59,3.3-6.33,3.3-3.84,0-4.39-4.86-4.83-7.48-.03-.34-.14-.65-.48-.65-1.87,0-4.05,5.65-6.63,5.65-1.46,0-1.7-2.28-1.74-2.96.03-.34-.17-.34-.37-.24-1.33.68-3.3,5.44-5.68,5.44-1.7,0-2.35-1.53-2.42-2.75-.07-1.39-.1-2.58-.1-3.81,0-1.39.17-2.86.48-4.59.14-.82.82-2.75,1.84-2.75Z"/>
    <path class="cls-1" d="m107.68,72.98c-1.43-.2-1.73-3.5-1.77-4.32-.14-2.55-.2-4.52-.17-6.6.03-2.01.17-4.12.41-6.87.03-.54.03-2.25.71-3.44.48-.82,1.29-1.7,2.07-1.7.58,0,.71.65.75.99.1,1.09-.03,2.38-.1,3.37-.07.68-.17,1.36-.2,2.04,2.01-2.48,5.2-5.34,8.44-5.34,1.9,0,2.14,1.77,2.14,3.27,0,3.5-3.33,6.39-6.12,8.13-.85.54-1.63,1.16-2.69,1.16-.51,0-1.39-.34-1.43-1.16,0-.78,1.91-.92,3.67-1.94,1.36-.75,2.79-2.24,2.99-4.12.1-.88-.24-1.77-1.26-1.77-2.01,0-2.72.88-3.95,2.07-.61.58-1.46,1.77-2.07,2.75-.07,1.36-.14,2.69-.14,4.05,0,2.48.2,4.97.75,7.31.2.82-1.16,2.21-2.04,2.11Z"/>
  </g>
</svg>