<?xml version="1.0" encoding="UTF-8"?>
<svg id="Lager_1" data-name="Lager 1" xmlns="http://www.w3.org/2000/svg" xmlns:xlink="http://www.w3.org/1999/xlink" viewBox="0 0 135 92.65">
  <defs>
    <style>
      .cls-1 {
        letter-spacing: -.01em;
      }

      .cls-2 {
        fill: #1d1d1b;
        font-family: TrimWebRegular, 'Trim Web';
        font-size: 17.01px;
      }

      .cls-3 {
        letter-spacing: -.01em;
      }

      .cls-4 {
        letter-spacing: 0em;
      }

      .cls-5 {
        letter-spacing: -.01em;
      }

      .cls-6 {
        clip-path: url(#clippath);
      }

      .cls-7 {
        fill: none;
      }

      .cls-8 {
        fill: #12100b;
      }
    </style>
    <clipPath id="clippath">
      <polygon class="cls-7" points="0 21.88 135 21.88 135 92.65 0 92.65 0 21.88 0 21.88"/>
    </clipPath>
  </defs>
  <text class="cls-2" transform="translate(0 14.46)"><tspan x="0" y="0">p</tspan><tspan class="cls-3" x="9.34" y="0">ow</tspan><tspan class="cls-4" x="31.63" y="0">e</tspan><tspan class="cls-5" x="40.82" y="0">r</tspan><tspan x="46.67" y="0">ed </tspan><tspan class="cls-1" x="68.69" y="0">b</tspan><tspan x="77.79" y="0">y</tspan></text>
  <g class="cls-6">
    <path class="cls-8" d="m88.74,30.39c-6.4.22-13.92,11.77-18.32,23.1-.79,2.04-1.44,3.96-1.95,5.74,5.49-1.33,12.01-2.73,19.41-3.98.82-1.67,1.62-3.45,2.39-5.34,4.5-11.03,3.9-19.71-1.53-19.53h0Zm-5.2,32.43c-6.08,1.36-11.58,2.79-16.39,4.16,0,3.62,1.29,5.71,4.02,5.74,3.43.04,7.95-3.36,12.37-9.9h0Zm49.21-6.62c-12.78.58-25.5,2.04-38.07,4.35-7.07,12.46-18.05,20.53-25.51,20.24-6.8-.26-9.23-5.33-9.45-11.58-8.6,2.73-13.75,4.86-14.36,5.12-1.55.67-2.31.22-2.95-.49-.12-.13-2.27-2.96-2.35-3.09-.29-.44-.62-.91-.2-2.07.69-1.89,3.67-9.27,3.67-9.27-2.85.26-5.66.67-8.4,1.19-4.09,10.35-9.81,24.81-10.17,25.74-.65,1.66-2.8,1.73-3.69.47-.29-.41-2.46-3.28-2.77-3.71-.4-.56-.52-1.08-.26-2,.25-.88,3.79-9.83,7.05-18.11-3.71,1.09-7.21,2.34-10.41,3.65-2.3,5.82-5.07,12.5-5.42,13.31-.61,1.42-2.48,1.74-3.54.41-.17-.21-1.56-2.02-1.71-2.22-.67-.89-.75-1.38-.44-2.2.16-.42.98-2.48,2.03-5.11-.29.15-.57.3-.85.45-1.97.8-4.1-1.95-4.65-2.65-.24-.33-.35-.74-.3-1.14.04-.41.24-.78.54-1.05.28-.26,3.54-2.58,9.08-5.29.37-.95.7-1.81.96-2.52,3.18-8.6,7.34-18.7,7.93-20.01.59-1.31,1.72-2.72,4.68-3.06,2.96-.34,3.08,1.33,2.83,2.18-.22.73-5.1,12.85-7.69,19.71,3.38-1.23,6.83-2.26,10.33-3.08.36-.93.69-1.79.98-2.53,3.95-10.31,8.69-22.25,9.34-23.48.65-1.23,2.12-2.54,5.25-2.9,3.13-.35,3.86,1.18,3.7,1.96-.16.78-4.87,13.19-8.75,22.91-.13.33-.46,1.15-.93,2.35,2.23-.26,4.53-.45,6.9-.53.42-.03.85.02,1.25.13,1.09.39,3.82,1.41,4.93,1.8.89.31,1.44,1.31,1.03,2.39-.41,1.09-3.33,8.44-3.33,8.44,0,0,4.04-1.54,11.34-3.58.83-4.5,2.28-8.87,3.68-11.95,11.4-25.05,23.06-27.48,27.29-27.51,9.77-.08,13.6,14.47,6.6,31.86,10.09-1.34,20.24-2.15,30.41-2.44.36.07.39.26.43.38.05.16-.02.82-.56.84-10.77.4-15.03,1.28-15.56,1.41-.77.18-.65,1.07.57.92,6.32-.74,12.68-1.12,19.05-1.12.18,0,1.28-.06,2.1.76.35.35,1.59,1.49-.98,1.68-.2,0-.39.02-.59.02-.02,0-.05,0-.07,0h0Zm-80.04-19.79c.57-1.14,2.01-2.68,4.78-2.99,2.77-.31,3.32,1.38,3.14,2.11-.18.73-4.73,11.27-5.33,12.82-.6,1.56-2.75,1.28-3.39.48-.52-.66-1.65-2.02-2.07-2.7-.42-.68-.46-1.19-.11-2.14,0,0,2.42-6.45,2.99-7.59h0Z"/>
  </g>
</svg>